<?xml version="1.0" encoding="utf-8" standalone="no"?>
<!DOCTYPE svg PUBLIC "-//W3C//DTD SVG 1.1//EN"
  "http://www.w3.org/Graphics/SVG/1.1/DTD/svg11.dtd">
<svg xmlns:xlink="http://www.w3.org/1999/xlink" width="343.531862pt" height="219.6pt" viewBox="0 0 343.531862 219.6" xmlns="http://www.w3.org/2000/svg" version="1.1">
 <metadata>
  <rdf:RDF xmlns:dc="http://purl.org/dc/elements/1.1/" xmlns:cc="http://creativecommons.org/ns#" xmlns:rdf="http://www.w3.org/1999/02/22-rdf-syntax-ns#">
   <cc:Work>
    <dc:type rdf:resource="http://purl.org/dc/dcmitype/StillImage"/>
    <dc:date>2024-08-01T10:55:28.462413</dc:date>
    <dc:format>image/svg+xml</dc:format>
    <dc:creator>
     <cc:Agent>
      <dc:title>Matplotlib v3.9.0, https://matplotlib.org/</dc:title>
     </cc:Agent>
    </dc:creator>
   </cc:Work>
  </rdf:RDF>
 </metadata>
 <defs>
  <style type="text/css">*{stroke-linejoin: round; stroke-linecap: butt}</style>
 </defs>
 <g id="figure_1">
  <g id="patch_1">
   <path d="M 0 219.6 
L 343.531862 219.6 
L 343.531862 0 
L 0 0 
L 0 219.6 
z
" style="fill: none"/>
  </g>
  <g id="axes_1">
   <g id="PolyCollection_1">
    <path d="M -92.175992 166.23 
L -92.175992 176.49 
L -86.739202 176.49 
L -81.302412 176.49 
L -75.865621 176.49 
L -70.428831 176.49 
L -64.992041 176.49 
L -59.55525 176.49 
L -54.11846 176.49 
L -48.68167 176.49 
L -43.244879 176.49 
L -37.808089 176.49 
L -32.371298 176.49 
L -26.934508 176.49 
L -21.497718 176.49 
L -16.060927 176.49 
L -10.624137 176.49 
L -5.187347 176.49 
L 0.249444 176.49 
L 5.686234 176.49 
L 11.123024 176.49 
L 16.559815 176.49 
L 21.996605 176.49 
L 27.433395 176.49 
L 32.870186 176.49 
L 38.306976 176.49 
L 43.743766 176.49 
L 49.180557 176.49 
L 54.617347 176.49 
L 60.054138 176.49 
L 65.490928 176.49 
L 70.927718 176.49 
L 76.364509 176.49 
L 81.801299 176.49 
L 87.238089 176.49 
L 92.67488 176.49 
L 98.11167 176.49 
L 103.54846 176.49 
L 108.985251 176.49 
L 114.422041 176.49 
L 119.858831 176.49 
L 125.295622 176.49 
L 130.732412 176.49 
L 136.169202 176.49 
L 141.605993 176.49 
L 147.042783 176.49 
L 152.479574 176.49 
L 157.916364 176.49 
L 163.353154 176.49 
L 168.789945 176.49 
L 174.226735 176.49 
L 179.663525 176.49 
L 185.100316 176.49 
L 190.537106 176.49 
L 195.973896 176.49 
L 201.410687 176.49 
L 206.847477 176.49 
L 212.284267 176.49 
L 217.721058 176.49 
L 223.157848 176.49 
L 228.594638 176.49 
L 234.031429 176.49 
L 239.468219 176.49 
L 244.90501 176.49 
L 250.3418 176.49 
L 255.77859 176.49 
L 261.215381 176.49 
L 266.652171 176.49 
L 272.088961 176.49 
L 277.525752 176.49 
L 282.962542 176.49 
L 288.399332 176.49 
L 293.836123 176.49 
L 299.272913 176.49 
L 304.709703 176.49 
L 310.146494 176.49 
L 315.583284 176.49 
L 321.020074 176.49 
L 326.456865 176.49 
L 331.893655 176.49 
L 337.330446 176.49 
L 342.767236 176.49 
L 348.204026 176.49 
L 353.640817 176.49 
L 359.077607 176.49 
L 364.514397 176.49 
L 369.951188 176.49 
L 375.387978 176.49 
L 380.824768 176.49 
L 386.261559 176.49 
L 391.698349 176.49 
L 397.135139 176.49 
L 402.57193 176.49 
L 408.00872 176.49 
L 413.44551 176.49 
L 418.882301 176.49 
L 424.319091 176.49 
L 429.755881 176.49 
L 435.192672 176.49 
L 440.629462 176.49 
L 446.066253 176.49 
L 446.066253 166.23 
L 446.066253 166.23 
L 440.629462 166.23 
L 435.192672 166.23 
L 429.755881 166.23 
L 424.319091 166.23 
L 418.882301 166.23 
L 413.44551 166.23 
L 408.00872 166.23 
L 402.57193 166.23 
L 397.135139 166.23 
L 391.698349 166.23 
L 386.261559 166.23 
L 380.824768 166.23 
L 375.387978 166.23 
L 369.951188 166.23 
L 364.514397 166.23 
L 359.077607 166.23 
L 353.640817 166.23 
L 348.204026 166.23 
L 342.767236 166.23 
L 337.330446 166.23 
L 331.893655 166.23 
L 326.456865 166.23 
L 321.020074 166.23 
L 315.583284 166.23 
L 310.146494 166.23 
L 304.709703 166.23 
L 299.272913 166.23 
L 293.836123 166.23 
L 288.399332 166.23 
L 282.962542 166.23 
L 277.525752 166.23 
L 272.088961 166.23 
L 266.652171 166.23 
L 261.215381 166.23 
L 255.77859 166.23 
L 250.3418 166.23 
L 244.90501 166.23 
L 239.468219 166.23 
L 234.031429 166.23 
L 228.594638 166.23 
L 223.157848 166.23 
L 217.721058 166.23 
L 212.284267 166.23 
L 206.847477 166.23 
L 201.410687 166.23 
L 195.973896 166.23 
L 190.537106 166.23 
L 185.100316 166.23 
L 179.663525 166.23 
L 174.226735 166.23 
L 168.789945 166.23 
L 163.353154 166.23 
L 157.916364 166.23 
L 152.479574 166.23 
L 147.042783 166.23 
L 141.605993 166.23 
L 136.169202 166.23 
L 130.732412 166.23 
L 125.295622 166.23 
L 119.858831 166.23 
L 114.422041 166.23 
L 108.985251 166.23 
L 103.54846 166.23 
L 98.11167 166.23 
L 92.67488 166.23 
L 87.238089 166.23 
L 81.801299 166.23 
L 76.364509 166.23 
L 70.927718 166.23 
L 65.490928 166.23 
L 60.054138 166.23 
L 54.617347 166.23 
L 49.180557 166.23 
L 43.743766 166.23 
L 38.306976 166.23 
L 32.870186 166.23 
L 27.433395 166.23 
L 21.996605 166.23 
L 16.559815 166.23 
L 11.123024 166.23 
L 5.686234 166.23 
L 0.249444 166.23 
L -5.187347 166.23 
L -10.624137 166.23 
L -16.060927 166.23 
L -21.497718 166.23 
L -26.934508 166.23 
L -32.371298 166.23 
L -37.808089 166.23 
L -43.244879 166.23 
L -48.68167 166.23 
L -54.11846 166.23 
L -59.55525 166.23 
L -64.992041 166.23 
L -70.428831 166.23 
L -75.865621 166.23 
L -81.302412 166.23 
L -86.739202 166.23 
L -92.175992 166.23 
z
" clip-path="url(#p1c5d58799e)" style="fill: #d62728; fill-opacity: 0.5"/>
   </g>
   <g id="line2d_1">
    <path d="M 152.479574 145.976519 
L 155.197969 145.976519 
L 155.197969 122.684736 
L 160.634759 122.684736 
L 160.634759 101.316352 
L 166.071549 101.316352 
L 166.071549 78.014523 
L 171.50834 78.014523 
L 171.50834 46.384335 
L 176.94513 46.384335 
L 176.94513 21.197257 
L 182.38192 21.197257 
L 182.38192 18.943995 
L 187.818711 18.943995 
L 187.818711 22.617165 
L 193.255501 22.617165 
L 193.255501 35.672233 
L 198.692292 35.672233 
L 198.692292 52.829977 
L 204.129082 52.829977 
L 204.129082 66.000724 
L 209.565872 66.000724 
L 209.565872 84.625122 
L 215.002663 84.625122 
L 215.002663 75.901597 
L 220.439453 75.901597 
L 220.439453 64.710505 
L 225.876243 64.710505 
L 225.876243 59.018432 
L 231.313034 59.018432 
L 231.313034 39.771747 
L 236.749824 39.771747 
L 236.749824 37.461297 
L 242.186614 37.461297 
L 242.186614 49.320663 
L 247.623405 49.320663 
L 247.623405 70.104691 
L 253.060195 70.104691 
L 253.060195 109.263524 
L 258.496985 109.263524 
L 258.496985 123.878142 
L 263.933776 123.878142 
L 263.933776 147.364134 
L 269.370566 147.364134 
L 269.370566 164.479466 
L 272.088961 164.479466 
" clip-path="url(#p1c5d58799e)" style="fill: none; stroke: #cccccc; stroke-width: 3; stroke-linecap: square"/>
   </g>
   <g id="line2d_2">
    <path d="M -1 171.36 
L 117.409827 171.254966 
L 123.336418 171.008915 
L 127.107885 170.645099 
L 129.80179 170.203642 
L 132.495695 169.531279 
L 134.65082 168.763777 
L 136.805944 167.726962 
L 138.422287 166.729758 
L 140.03863 165.506542 
L 141.654973 164.019991 
L 143.271316 162.230315 
L 144.887659 160.096064 
L 146.504002 157.575223 
L 148.120345 154.62659 
L 149.736688 151.211424 
L 151.353031 147.295357 
L 152.969374 142.850497 
L 154.585718 137.857667 
L 156.740842 130.33589 
L 158.895966 121.844983 
L 161.05109 112.452808 
L 163.744995 99.63914 
L 167.516462 80.397099 
L 172.365491 55.648758 
L 174.520615 45.571148 
L 176.67574 36.574745 
L 178.292083 30.745452 
L 179.908426 25.849848 
L 180.985988 23.161521 
L 182.06355 20.967005 
L 183.141112 19.289533 
L 184.218674 18.147021 
L 184.757455 17.780438 
L 185.296236 17.551746 
L 185.835017 17.461561 
L 186.373798 17.510129 
L 186.912579 17.697317 
L 187.45136 18.02262 
L 188.528922 19.083688 
L 189.606484 20.681923 
L 190.684046 22.800237 
L 191.761608 25.416172 
L 192.83917 28.502293 
L 194.455513 33.942124 
L 196.071857 40.243316 
L 198.226981 49.742935 
L 200.920886 62.879134 
L 210.618944 111.715134 
L 212.774068 121.170641 
L 214.929192 129.732161 
L 215.467973 131.723271 
L 215.467973 131.723271 
" clip-path="url(#p1c5d58799e)" style="fill: none; stroke-dasharray: 5.55,2.4; stroke-dashoffset: 0; stroke: #1f77b4; stroke-width: 1.5"/>
   </g>
   <g id="line2d_3">
    <path d="M 212.774068 131.787687 
L 214.929192 123.067157 
L 217.084317 113.465427 
L 220.317003 97.863781 
L 226.243594 68.785513 
L 228.398718 59.370039 
L 230.015061 53.135638 
L 231.631404 47.798485 
L 232.708966 44.813597 
L 233.786528 42.332488 
L 234.86409 40.387301 
L 235.941652 39.003532 
L 237.019214 38.199476 
L 237.557996 38.018485 
L 238.096777 37.985821 
L 238.635558 38.101593 
L 239.174339 38.365415 
L 239.71312 38.776407 
L 240.790682 40.033948 
L 241.868244 41.857567 
L 242.945806 44.223309 
L 244.023368 47.100439 
L 245.639711 52.29289 
L 247.256054 58.405857 
L 249.411178 67.699473 
L 252.105083 80.552156 
L 259.109237 114.856172 
L 261.803142 126.58131 
L 263.958266 134.921298 
L 266.11339 142.231497 
L 267.729733 147.020721 
L 269.346076 151.22528 
L 270.962419 154.869575 
L 272.578762 157.988921 
L 274.195105 160.626301 
L 275.811448 162.829378 
L 277.427791 164.64787 
L 279.044135 166.131364 
L 280.660478 167.327589 
L 282.276821 168.281143 
L 284.431945 169.244629 
L 286.587069 169.932265 
L 289.280974 170.508187 
L 292.51366 170.918201 
L 296.823908 171.187023 
L 303.289281 171.322922 
L 319.991492 171.35967 
L 344.531862 171.36 
L 344.531862 171.36 
" clip-path="url(#p1c5d58799e)" style="fill: none; stroke-dasharray: 5.55,2.4; stroke-dashoffset: 0; stroke: #ff7f0e; stroke-width: 1.5"/>
   </g>
   <g id="line2d_4">
    <path d="M -1 165.332244 
L 2.967839 165.332244 
L 2.967839 175.196578 
L 8.404629 175.196578 
L 8.404629 171.3137 
L 13.84142 171.3137 
L 13.84142 175.864693 
L 19.27821 175.864693 
L 19.27821 172.162507 
L 24.715 172.162507 
L 24.715 170.043794 
L 30.151791 170.043794 
L 30.151791 176.432437 
L 35.588581 176.432437 
L 35.588581 173.098157 
L 41.025371 173.098157 
L 41.025371 172.571624 
L 46.462162 172.571624 
L 46.462162 174.63117 
L 51.898952 174.63117 
L 51.898952 177.452451 
L 57.335742 177.452451 
L 57.335742 178.650844 
L 62.772533 178.650844 
L 62.772533 172.14743 
L 68.209323 172.14743 
L 68.209323 172.740262 
L 73.646113 172.740262 
L 73.646113 159.913088 
L 79.082904 159.913088 
L 79.082904 183.850358 
L 84.519694 183.850358 
L 84.519694 170.781713 
L 89.956484 170.781713 
L 89.956484 169.45962 
L 95.393275 169.45962 
L 95.393275 164.385078 
L 100.830065 164.385078 
L 100.830065 168.785473 
L 106.266856 168.785473 
L 106.266856 175.690816 
L 111.703646 175.690816 
L 111.703646 171.35995 
L 117.140436 171.35995 
L 117.140436 168.577731 
L 122.577227 168.577731 
L 122.577227 172.968297 
L 128.014017 172.968297 
L 128.014017 167.40471 
L 133.450807 167.40471 
L 133.450807 180.943305 
L 138.887598 180.943305 
L 138.887598 162.479023 
L 144.324388 162.479023 
L 144.324388 163.830812 
L 149.761178 163.830812 
L 149.761178 173.082025 
L 155.197969 173.082025 
L 155.197969 168.223822 
L 160.634759 168.223822 
L 160.634759 171.113911 
L 166.071549 171.113911 
L 166.071549 175.613464 
L 171.50834 175.613464 
L 171.50834 170.910047 
L 176.94513 170.910047 
L 176.94513 166.228123 
L 182.38192 166.228123 
L 182.38192 173.315005 
L 193.255501 173.287184 
L 193.255501 171.742035 
L 198.692292 171.742035 
L 198.692292 169.136164 
L 204.129082 169.136164 
L 204.129082 164.801915 
L 209.565872 164.801915 
L 209.565872 174.615905 
L 215.002663 174.615905 
L 215.002663 168.751927 
L 220.439453 168.751927 
L 220.439453 170.251325 
L 225.876243 170.251325 
L 225.876243 180.894682 
L 231.313034 180.894682 
L 231.313034 173.511094 
L 236.749824 173.511094 
L 236.749824 172.038847 
L 242.186614 172.038847 
L 242.186614 171.562995 
L 247.623405 171.562995 
L 247.623405 169.687602 
L 253.060195 169.687602 
L 253.060195 181.826857 
L 258.496985 181.826857 
L 258.496985 171.122709 
L 263.933776 171.122709 
L 263.933776 174.836476 
L 269.370566 174.836476 
L 269.370566 178.744322 
L 274.807356 178.744322 
L 274.807356 168.670359 
L 280.244147 168.670359 
L 280.244147 167.588016 
L 285.680937 167.588016 
L 285.680937 174.711174 
L 291.117728 174.711174 
L 291.117728 167.038199 
L 296.554518 167.038199 
L 296.554518 173.31718 
L 301.991308 173.31718 
L 301.991308 171.018911 
L 307.428099 171.018911 
L 307.428099 176.996531 
L 312.864889 176.996531 
L 312.864889 163.231581 
L 318.301679 163.231581 
L 318.301679 185.002976 
L 323.73847 185.002976 
L 323.73847 171.829152 
L 329.17526 171.829152 
L 329.17526 167.794036 
L 334.61205 167.794036 
L 334.61205 181.791683 
L 340.048841 181.791683 
L 340.048841 172.331977 
L 344.531862 172.331977 
L 344.531862 172.331977 
" clip-path="url(#p1c5d58799e)" style="fill: none; stroke: #cccccc; stroke-width: 1.5; stroke-linecap: square"/>
   </g>
   <g id="text_1">
    <!-- L -->
    <g style="fill: #cccccc" transform="translate(7.2 166.05) scale(2 -2)">
     <defs>
      <path id="MTFSaxy-4c" d="M 431 3913 
L 444 3913 
Q 506 3894 506 3750 
L 506 3638 
Q 419 2231 419 1250 
L 419 900 
Q 419 338 519 338 
Q 581 316 844 300 
L 2356 363 
Q 2956 363 2956 175 
Q 2956 13 2331 13 
L 2294 13 
Q 1994 13 1194 63 
Q 1056 63 381 50 
Q 206 50 169 175 
Q 169 278 156 638 
Q 194 3675 281 3675 
Q 281 3781 431 3913 
z
" transform="scale(0.015625)"/>
     </defs>
     <use xlink:href="#MTFSaxy-4c"/>
    </g>
   </g>
   <g id="text_2">
    <!-- i -->
    <g style="fill: #cccccc" transform="translate(115.496883 166.05) scale(2 -2)">
     <defs>
      <path id="MTFSaxy-69" d="M 444 3556 
Q 619 3506 619 3319 
L 619 3281 
Q 619 3169 469 3156 
L 419 3156 
Q 156 3206 156 3344 
Q 156 3478 444 3556 
z
M 469 1719 
Q 519 1663 519 1544 
L 519 1431 
L 469 519 
L 469 169 
L 481 44 
Q 406 -6 344 -6 
L 331 -6 
Q 266 -6 256 31 
Q 231 797 231 994 
Q 263 1719 469 1719 
z
" transform="scale(0.015625)"/>
     </defs>
     <use xlink:href="#MTFSaxy-69"/>
    </g>
   </g>
   <g id="text_3">
    <!-- e -->
    <g style="fill: #cccccc" transform="translate(268.738112 166.05) scale(2 -2)">
     <defs>
      <path id="MTFSaxy-65" d="M 1094 2081 
Q 1506 2081 1694 1744 
Q 1706 1722 1706 1681 
Q 1706 1378 969 1181 
Q 963 1181 806 1169 
Q 544 1169 544 1381 
L 531 1381 
Q 431 1141 431 944 
L 431 806 
Q 431 416 806 319 
L 981 319 
Q 1191 319 1906 544 
L 1956 544 
Q 2006 525 2006 456 
Q 2006 238 1194 -6 
L 1056 -6 
Q 459 -6 219 606 
Q 156 778 156 981 
L 156 1044 
Q 156 1541 531 1894 
Q 753 2081 1094 2081 
z
M 569 1444 
Q 569 1400 819 1394 
L 906 1394 
Q 1469 1441 1469 1656 
Q 1469 1816 1144 1844 
L 1056 1844 
Q 681 1844 569 1506 
L 569 1444 
z
" transform="scale(0.015625)"/>
     </defs>
     <use xlink:href="#MTFSaxy-65"/>
    </g>
   </g>
  </g>
 </g>
 <defs>
  <clipPath id="p1c5d58799e">
   <rect x="15.472457" y="7.2" width="313.974643" height="205.2"/>
  </clipPath>
 </defs>
</svg>
